<?xml version="1.0" encoding="UTF-8"?>
<svg version="1.1" xmlns="http://www.w3.org/2000/svg" width="60" height="66">
<path d="M0 0 C0.33 0.66 0.66 1.32 1 2 C1.99 1.34 2.98 0.68 4 0 C9.45301206 -0.92013525 13.82172639 -0.51906871 18.5 2.5 C19.1290625 2.9640625 19.758125 3.428125 20.40625 3.90625 C21.95267805 5.18861417 21.95267805 5.18861417 24 5 C24.66 4.67 25.32 4.34 26 4 C25.773125 4.639375 25.54625 5.27875 25.3125 5.9375 C24.98225565 9.17389465 25.37865348 10.25903755 26.5625 13.1875 C28.49190444 18.53115008 27.92570369 22.71306804 26 28 C23.39884914 33.08583227 20.02716959 36.21901257 15 39 C9.28366263 40.73469301 3.36752867 40.90819349 -2.1875 38.5625 C-7.71392802 35.48980602 -11.04086013 29.8774196 -13 24 C-14.07748774 17.33048731 -12.44993011 12.8334848 -8.80078125 7.2421875 C-6.21772303 4.02597184 -3.52679744 2.11607847 0 0 Z M-2 3 C-2.33 3.66 -2.66 4.32 -3 5 C-2.01 4.67 -1.02 4.34 0 4 C-0.66 3.67 -1.32 3.34 -2 3 Z M1 5 C0.63637182 7.20725073 0.63637182 7.20725073 0.8125 9.625 C0.83957031 10.44226563 0.86664063 11.25953125 0.89453125 12.1015625 C0.92933594 12.72804688 0.96414062 13.35453125 1 14 C3.6450037 13.08216876 3.6450037 13.08216876 6 11 C6.46837899 8.20625708 6.23424505 5.85778964 6 3 C3.67642489 2.81509993 3.67642489 2.81509993 1 5 Z M9 3 C9 4.98 9 6.96 9 9 C10.65 7.35 12.3 5.7 14 4 C12.35 3.67 10.7 3.34 9 3 Z M15 6 C13.32419948 6.97207035 13.32419948 6.97207035 11.8125 8.4375 C10.884375 9.283125 9.95625 10.12875 9 11 C9.34444881 13.47266765 9.34444881 13.47266765 10 16 C10.66 16.33 11.32 16.66 12 17 C14.64 15.02 17.28 13.04 20 11 C19.34 9.68 18.68 8.36 18 7 C17.01 6.67 16.02 6.34 15 6 Z M-6 7 C-7.41577477 8.18424326 -7.41577477 8.18424326 -7.0625 11.5625 C-7.041875 12.696875 -7.02125 13.83125 -7 15 C-5.68 15 -4.36 15 -3 15 C-2.67 12.36 -2.34 9.72 -2 7 C-3.32 7 -4.64 7 -6 7 Z M16.9375 15.5 C16.20402344 16.1496875 15.47054687 16.799375 14.71484375 17.46875 C14.14894531 17.9740625 13.58304688 18.479375 13 19 C13.33 19.99 13.66 20.98 14 22 C14.99 22.33 15.98 22.66 17 23 C18.90801574 21.79870633 18.90801574 21.79870633 20.6875 20.0625 C21.62142578 19.21365234 21.62142578 19.21365234 22.57421875 18.34765625 C23.04472656 17.90292969 23.51523437 17.45820312 24 17 C23.34 15.35 22.68 13.7 22 12 C20.00075727 12 18.34007777 14.25326421 16.9375 15.5 Z M1 17 C1.66 18.32 2.32 19.64 3 21 C4.98 20.34 6.96 19.68 9 19 C8.34 17.02 7.68 15.04 7 13 C4.77885534 13 2.64121052 15.65336573 1 17 Z M-10 18 C-9.67 19.65 -9.34 21.3 -9 23 C-8.67 22.01 -8.34 21.02 -8 20 C-8.66 19.34 -9.32 18.68 -10 18 Z M-7 18 C-6.34 19.65 -5.68 21.3 -5 23 C-3.68 23 -2.36 23 -1 23 C-1.33 21.02 -1.66 19.04 -2 17 C-3.72082924 17 -5.34228586 17.5722028 -7 18 Z M23 19 C21.30911778 20.97956942 19.64169528 22.97945196 18 25 C20.475 25.495 20.475 25.495 23 26 C23.33 23.69 23.66 21.38 24 19 C23.67 19 23.34 19 23 19 Z M4 23 C4.99 24.32 5.98 25.64 7 27 C10.93075644 26.42547254 10.93075644 26.42547254 14 24 C12.62514468 22.45833358 12.62514468 22.45833358 11 21 C8.3534665 21 6.4191837 21.98139634 4 23 Z M-2 25 C-2 26.32 -2 27.64 -2 29 C-0.02 29.495 -0.02 29.495 2 30 C2.2236068 27.0745356 2.2236068 27.0745356 1 25 C0.01 25 -0.98 25 -2 25 Z M-8 26 C-7.34 27.32 -6.68 28.64 -6 30 C-5.34 30 -4.68 30 -4 30 C-4.66 28.68 -5.32 27.36 -6 26 C-6.66 26 -7.32 26 -8 26 Z M9 30 C11.475 31.98 11.475 31.98 14 34 C17.81413002 32.8321734 17.81413002 32.8321734 20.3125 29.875 C20.539375 29.25625 20.76625 28.6375 21 28 C15.5936596 25.0171915 13.56625161 26.05080942 9 30 Z M4 31 C4 31.99 4 32.98 4 34 C7.22791555 36.1519437 8.28400809 36.20086443 12 36 C9.31158141 33.74754119 7.35358125 32.11786042 4 31 Z M-4 32 C-3.01 32.99 -2.02 33.98 -1 35 C-0.34 34.67 0.32 34.34 1 34 C0.34 33.34 -0.32 32.68 -1 32 C-1.99 32 -2.98 32 -4 32 Z " fill="#C5C7C9" transform="translate(21,20)"/>
<path d="M0 0 C8.09304775 1.31425562 8.09304775 1.31425562 11.5625 3.9375 C13 6 13 6 13 9 C13.66 9 14.32 9 15 9 C15.0825 8.401875 15.165 7.80375 15.25 7.1875 C16.24784035 4.2771323 17.33770358 3.5110331 20 2 C23.25 1.3125 23.25 1.3125 26 1 C25.37618048 10.87355719 25.37618048 10.87355719 22 15 C19.68679333 16.61924467 18.47689242 17.01901232 15.6484375 16.90625 C10.03083706 17.10510311 5.28366407 20.91167612 1.125 24.4375 C-3.03258684 29.4510606 -4.98765336 34.45628302 -5 41 C-4.29928038 47.54854334 -1.48999388 54.04627347 3.6015625 58.35546875 C8.55453717 61.48782944 13.68007553 62.50301886 19.44921875 61.62890625 C27.17661129 59.72368389 32.54115311 55.61143137 37 49.0625 C37.33 48.381875 37.66 47.70125 38 47 C38.99 47.495 38.99 47.495 40 48 C36.36802975 55.70047538 31.27672553 62.87974772 23 66 C14.70391684 66.82196216 6.99067819 66.98587023 0 62 C-0.886875 61.46375 -1.77375 60.9275 -2.6875 60.375 C-8.06995021 54.84707816 -11 47.66744056 -11 40 C-9.85329791 33.63278578 -7.7412863 27.55296418 -3 23 C0.22017489 20.77254774 3.54202714 18.83306134 7 17 C6.21625 16.278125 5.4325 15.55625 4.625 14.8125 C0.95983044 10.88553261 0.05073998 8.54756927 -0.125 3.1875 C-0.08375 2.135625 -0.0425 1.08375 0 0 Z M4 3 C2.67579751 4.1043392 2.67579751 4.1043392 2.8125 6.875 C2.74656487 10.16570758 2.74656487 10.16570758 5 13 C5.99 13 6.98 13 8 13 C7.67 11.02 7.34 9.04 7 7 C8.32 7.66 9.64 8.32 11 9 C10.96877057 7.03243548 10.96877057 7.03243548 10 5 C7.00384054 3.6954344 7.00384054 3.6954344 4 3 Z M17 6 C16.42251197 7.96361864 16.42251197 7.96361864 16.3125 10.125 C16.209375 11.40375 16.10625 12.6825 16 14 C18.43717258 13.72965366 18.43717258 13.72965366 21 13 C23.29013653 9.5647952 23.17842973 8.014669 23 4 C19.81509993 3.7226499 19.81509993 3.7226499 17 6 Z M11 13 C12 15 12 15 12 15 Z " fill="#7DBF55" transform="translate(12,0)"/>
<path d="M0 0 C0.33 0.66 0.66 1.32 1 2 C1.99 1.34 2.98 0.68 4 0 C4.99 0 5.98 0 7 0 C7 1.65 7 3.3 7 5 C6.67 4.34 6.34 3.68 6 3 C4.02 3.99 4.02 3.99 2 5 C2 7.64 2 10.28 2 13 C2.99 12.34 3.98 11.68 5 11 C5.165 10.175 5.33 9.35 5.5 8.5 C5.665 7.675 5.83 6.85 6 6 C6.99 5.34 7.98 4.68 9 4 C9.33 4.99 9.66 5.98 10 7 C10.598125 6.484375 11.19625 5.96875 11.8125 5.4375 C12.534375 4.963125 13.25625 4.48875 14 4 C14.99 4.33 15.98 4.66 17 5 C16.34 5 15.68 5 15 5 C14.67 5.99 14.34 6.98 14 8 C11.9375 9.6875 11.9375 9.6875 10 11 C10.43266655 14.64929629 10.43266655 14.64929629 12.5625 17.5 C14 19 14 19 14.1875 21.6875 C14.0946875 22.8321875 14.0946875 22.8321875 14 24 C12.9171875 23.4740625 12.9171875 23.4740625 11.8125 22.9375 C8.6877295 21.89590983 7.11838004 22.10903428 4 23 C4 23.66 4 24.32 4 25 C3.34 25 2.68 25 2 25 C1.67 25.66 1.34 26.32 1 27 C1 26.34 1 25.68 1 25 C0.46375 25.309375 -0.0725 25.61875 -0.625 25.9375 C-4.61961785 27.72456588 -7.82046357 28.39317881 -12 27 C-13.69597866 21.91206401 -13.99322558 17.3943831 -11.90625 12.36328125 C-8.74666555 6.74157382 -5.51511925 3.30907155 0 0 Z M-2 3 C-2.33 3.66 -2.66 4.32 -3 5 C-2.01 4.67 -1.02 4.34 0 4 C-0.66 3.67 -1.32 3.34 -2 3 Z M-6 7 C-7.41577477 8.18424326 -7.41577477 8.18424326 -7.0625 11.5625 C-7.041875 12.696875 -7.02125 13.83125 -7 15 C-5.68 15 -4.36 15 -3 15 C-2.67 12.36 -2.34 9.72 -2 7 C-3.32 7 -4.64 7 -6 7 Z M1 17 C1.66 18.32 2.32 19.64 3 21 C4.98 20.34 6.96 19.68 9 19 C8.34 17.02 7.68 15.04 7 13 C4.77885534 13 2.64121052 15.65336573 1 17 Z M-10 18 C-9.67 19.65 -9.34 21.3 -9 23 C-8.67 22.01 -8.34 21.02 -8 20 C-8.66 19.34 -9.32 18.68 -10 18 Z M-7 18 C-6.34 19.65 -5.68 21.3 -5 23 C-3.68 23 -2.36 23 -1 23 C-1.33 21.02 -1.66 19.04 -2 17 C-3.72082924 17 -5.34228586 17.5722028 -7 18 Z " fill="#BABCBE" transform="translate(21,20)"/>
<path d="M0 0 C5.76126573 -0.60013185 8.59052745 0.57483277 13.30078125 3.90625 C14.94348807 5.18041533 14.94348807 5.18041533 17 5 C17.66 4.67 18.32 4.34 19 4 C18.79375 4.7425 18.5875 5.485 18.375 6.25 C17.94087248 9.43360185 18.53799371 10.24798816 20 13 C20.4375 15.5625 20.4375 15.5625 20 18 C17.625 19.75 17.625 19.75 15 21 C14.34 21.33 13.68 21.66 13 22 C14 20 15 18 16 16 C15.34 15.01 14.68 14.02 14 13 C12.6078125 14.2375 12.6078125 14.2375 11.1875 15.5 C8.375 18 8.375 18 5 18 C5 17.34 5 16.68 5 16 C6.53125 14.7109375 6.53125 14.7109375 8.5 13.375 C9.1496875 12.92898437 9.799375 12.48296875 10.46875 12.0234375 C10.9740625 11.68570312 11.479375 11.34796875 12 11 C10.54875366 7.17398693 8.64225296 5.77670876 5 4 C4.01 4 3.02 4 2 4 C1.67 5.65 1.34 7.3 1 9 C-0.61949011 6.42786866 -1.04408751 5.32330841 -0.625 2.25 C-0.41875 1.5075 -0.2125 0.765 0 0 Z " fill="#BCBEC0" transform="translate(28,20)"/>
<path d="M0 0 C0 0.99 0 1.98 0 3 C-0.969375 3.7425 -1.93875 4.485 -2.9375 5.25 C-5.85195518 7.49241611 -5.9797193 7.91163408 -6.875 11.8125 C-6.91625 12.864375 -6.9575 13.91625 -7 15 C-6.01 15 -5.02 15 -4 15 C-3.67 15.99 -3.34 16.98 -3 18 C-4.32 18 -5.64 18 -7 18 C-6.67 19.98 -6.34 21.96 -6 24 C-6.61875 23.34 -7.2375 22.68 -7.875 22 C-9.75637427 19.7715451 -9.75637427 19.7715451 -12 20 C-11.67 21.32 -11.34 22.64 -11 24 C-11.66 24 -12.32 24 -13 24 C-13.76589526 16.08574899 -11.99057469 11.21386089 -7 5 C-4.74670746 2.99407491 -2.60248511 1.56149107 0 0 Z " fill="#BBBDBF" transform="translate(21,20)"/>
<path d="M0 0 C0 1.65 0 3.3 0 5 C-0.33 4.34 -0.66 3.68 -1 3 C-3.03058091 3.67573067 -3.03058091 3.67573067 -5 5 C-5.77424039 7.11076831 -5.77424039 7.11076831 -5.875 9.5 C-5.95492188 10.2940625 -6.03484375 11.088125 -6.1171875 11.90625 C-6.22079364 14.22353088 -6.22079364 14.22353088 -4 16 C-5 19 -5 19 -7.0625 20.1875 C-7.701875 20.455625 -8.34125 20.72375 -9 21 C-9 19.68 -9 18.36 -9 17 C-9.66 17 -10.32 17 -11 17 C-10.67 14.03 -10.34 11.06 -10 8 C-10.66 7.67 -11.32 7.34 -12 7 C-10.56967163 5.82455195 -9.13046758 4.65989738 -7.6875 3.5 C-6.88699219 2.8503125 -6.08648437 2.200625 -5.26171875 1.53125 C-3 0 -3 0 0 0 Z " fill="#B1B3B6" transform="translate(28,20)"/>
<path d="M0 0 C0.99 0.33 1.98 0.66 3 1 C3.70572696 3.04660819 4.0095872 5.05592534 4.375 7.1875 C4.58125 7.785625 4.7875 8.38375 5 9 C5.99 9.33 6.98 9.66 8 10 C7.67 8.68 7.34 7.36 7 6 C7.66 6 8.32 6 9 6 C9.66 6.66 10.32 7.32 11 8 C11.99 8.33 12.98 8.66 14 9 C13.01 9.33 12.02 9.66 11 10 C11 10.66 11 11.32 11 12 C11.66 12.33 12.32 12.66 13 13 C12.01 13.99 11.02 14.98 10 16 C4.4277505 12.53048616 1.94946517 10.30709319 0 4 C0 2.68 0 1.36 0 0 Z " fill="#73CE4D" transform="translate(12,3)"/>
<path d="M0 0 C0.33 0.66 0.66 1.32 1 2 C1.99 2.33 2.98 2.66 4 3 C4 3.66 4 4.32 4 5 C4.66 5 5.32 5 6 5 C6 5.66 6 6.32 6 7 C6.763125 7.28875 7.52625 7.5775 8.3125 7.875 C11 9 11 9 14 11 C14 11.66 14 12.32 14 13 C8.71541239 12.58552254 5.77762551 11.77762551 2 8 C0.125 5.4375 0.125 5.4375 -1 3 C-0.67 2.01 -0.34 1.02 0 0 Z " fill="#C8CACD" transform="translate(11,46)"/>
<path d="M0 0 C2.475 0.99 2.475 0.99 5 2 C5.33 4.31 5.66 6.62 6 9 C1.25 11.875 1.25 11.875 -1 13 C0 11 1 9 2 7 C1.34 6.01 0.68 5.02 0 4 C-0.928125 4.825 -1.85625 5.65 -2.8125 6.5 C-5.625 9 -5.625 9 -9 9 C-9 8.34 -9 7.68 -9 7 C-7.5390625 5.7109375 -7.5390625 5.7109375 -5.625 4.375 C-4.99851562 3.92898437 -4.37203125 3.48296875 -3.7265625 3.0234375 C-2 2 -2 2 0 2 C0 1.34 0 0.68 0 0 Z " fill="#C9CBCD" transform="translate(42,29)"/>
<path d="M0 0 C0.66 0.33 1.32 0.66 2 1 C-1.06435658 7.49702524 -4.6924832 13.22604644 -11 17 C-11.99 16.67 -12.98 16.34 -14 16 C-12.85271556 12.55814667 -12.15865637 12.19639411 -9.25 10.25 C-5.13225835 7.30240795 -2.71933358 4.24895872 0 0 Z " fill="#84CC5A" transform="translate(50,47)"/>
<path d="M0 0 C0.66 0 1.32 0 2 0 C2.32405231 4.64474974 1.88473323 7.29105728 -1 11 C-3.99348295 13.09543806 -6.40048059 13.1999733 -10 13 C-10.33 11.68 -10.66 10.36 -11 9 C-9.02 7.68 -7.04 6.36 -5 5 C-5.33 6.32 -5.66 7.64 -6 9 C-4.68 8.67 -3.36 8.34 -2 8 C-1.34 5.36 -0.68 2.72 0 0 Z " fill="#7FC550" transform="translate(35,4)"/>
<path d="M0 0 C0.33 0.66 0.66 1.32 1 2 C3.31 2 5.62 2 8 2 C8.33 2.99 8.66 3.98 9 5 C12.00847418 6.22520264 12.00847418 6.22520264 15 7 C15 8.32 15 9.64 15 11 C12.03 11 9.06 11 6 11 C6.66 10.67 7.32 10.34 8 10 C7.80528889 8.05000871 7.80528889 8.05000871 7 6 C5.23470405 4.78309467 5.23470405 4.78309467 3 4 C2.0925 3.62875 1.185 3.2575 0.25 2.875 C-0.4925 2.58625 -1.235 2.2975 -2 2 C-1.34 1.34 -0.68 0.68 0 0 Z " fill="#B8BABC" transform="translate(17,49)"/>
<path d="M0 0 C0.89912109 0.29777344 0.89912109 0.29777344 1.81640625 0.6015625 C1.29691406 0.8696875 0.77742188 1.1378125 0.2421875 1.4140625 C-4.79450044 4.2442901 -7.40950801 6.83745658 -9.98046875 12.02734375 C-10.3775 12.54683594 -10.77453125 13.06632812 -11.18359375 13.6015625 C-12.50359375 13.6015625 -13.82359375 13.6015625 -15.18359375 13.6015625 C-13.40174835 7.93205442 -6.70591779 -1.22362006 0 0 Z " fill="#7EC556" transform="translate(19.18359375,18.3984375)"/>
<path d="M0 0 C0.66 0 1.32 0 2 0 C2.66 0.66 3.32 1.32 4 2 C6.06874034 2.6425235 6.06874034 2.6425235 8 3 C8 3.66 8 4.32 8 5 C8.66 5.33 9.32 5.66 10 6 C6.57703036 6.74010154 3.49869895 7 0 7 C0 4.69 0 2.38 0 0 Z " fill="#B1B2B4" transform="translate(9,40)"/>
<path d="M0 0 C1.32 0 2.64 0 4 0 C3.71788123 1.6266848 3.42397625 3.25132896 3.125 4.875 C2.96257813 5.77992187 2.80015625 6.68484375 2.6328125 7.6171875 C2 10 2 10 0 12 C0 11.01 0 10.02 0 9 C-0.99 8.67 -1.98 8.34 -3 8 C-2.34 8 -1.68 8 -1 8 C-0.67 5.36 -0.34 2.72 0 0 Z " fill="#B9BBBD" transform="translate(45,38)"/>
<path d="M0 0 C0 0.99 0 1.98 0 3 C-1.50737181 4.17968228 -3.01554288 5.35839038 -4.53125 6.52734375 C-7.00326715 9.00593541 -7.33778797 11.62271863 -8 15 C-8.33 14.34 -8.66 13.68 -9 13 C-9.66 13 -10.32 13 -11 13 C-9.1168869 7.00827651 -5.0224291 3.53430196 0 0 Z " fill="#D1D3D5" transform="translate(21,20)"/>
<path d="M0 0 C3.375 -0.125 3.375 -0.125 7 0 C7.66 0.66 8.32 1.32 9 2 C6.69 2.66 4.38 3.32 2 4 C1.67 5.65 1.34 7.3 1 9 C-0.61949011 6.42786866 -1.04408751 5.32330841 -0.625 2.25 C-0.41875 1.5075 -0.2125 0.765 0 0 Z " fill="#CBCED0" transform="translate(28,20)"/>
<path d="M0 0 C1.32 0.33 2.64 0.66 4 1 C3.45276317 4.37462715 2.9451 6.08235 1 9 C0.01 8.67 -0.98 8.34 -2 8 C-1.67 7.05125 -1.34 6.1025 -1 5.125 C0.10159191 2.22937548 0.10159191 2.22937548 0 0 Z " fill="#CCCED0" transform="translate(41,46)"/>
<path d="M0 0 C0.66 0.33 1.32 0.66 2 1 C1.24088921 2.48521677 0.46728766 3.96303425 -0.3125 5.4375 C-0.74175781 6.26121094 -1.17101563 7.08492187 -1.61328125 7.93359375 C-3 10 -3 10 -6 11 C-5.39305845 7.84669446 -4.3583335 5.81111133 -2.4375 3.25 C-1.98246094 2.63640625 -1.52742188 2.0228125 -1.05859375 1.390625 C-0.70925781 0.93171875 -0.35992187 0.4728125 0 0 Z " fill="#84BE62" transform="translate(50,47)"/>
<path d="M0 0 C0.33 1.32 0.66 2.64 1 4 C-1.60582371 4.93065133 -2.64198224 5.14917407 -5.25 4.0625 C-5.8275 3.711875 -6.405 3.36125 -7 3 C-7 2.34 -7 1.68 -7 1 C-2.25 0 -2.25 0 0 0 Z " fill="#74B34F" transform="translate(36,61)"/>
<path d="M0 0 C-4.95 2.97 -4.95 2.97 -10 6 C-10.66 5.34 -11.32 4.68 -12 4 C-10.76055724 3.13058506 -9.50792941 2.27994543 -8.25 1.4375 C-7.55390625 0.96183594 -6.8578125 0.48617188 -6.140625 -0.00390625 C-4 -1 -4 -1 0 0 Z " fill="#94D565" transform="translate(21,19)"/>
<path d="M0 0 C0.99 0.33 1.98 0.66 3 1 C2.25 2.9375 2.25 2.9375 1 5 C-1.125 5.75 -1.125 5.75 -3 6 C-3 3 -3 3 -1.5 1.3125 C-0.7575 0.6628125 -0.7575 0.6628125 0 0 Z " fill="#BABCBE" transform="translate(37,53)"/>
<path d="M0 0 C1.20896794 3.62690383 1.20896794 4.37309617 0 8 C-1.32 7.01 -2.64 6.02 -4 5 C-3 2 -3 2 0 0 Z " fill="#B3B4B5" transform="translate(40,40)"/>
<path d="M0 0 C-1.38801071 3.35435922 -2.88629 5.11290303 -6 7 C-6.99 7 -7.98 7 -9 7 C-9 6.34 -9 5.68 -9 5 C-7.5390625 3.7109375 -7.5390625 3.7109375 -5.625 2.375 C-4.99851562 1.92898437 -4.37203125 1.48296875 -3.7265625 1.0234375 C-2 0 -2 0 0 0 Z " fill="#D4D5D7" transform="translate(42,31)"/>
<path d="M0 0 C3.5 -0.375 3.5 -0.375 7 0 C7.66 0.99 8.32 1.98 9 3 C5.37 3 1.74 3 -2 3 C-1.34 2.01 -0.68 1.02 0 0 Z " fill="#8DDC5F" transform="translate(24,63)"/>
<path d="M0 0 C0.33 0.66 0.66 1.32 1 2 C-0.98 4.97 -0.98 4.97 -3 8 C-3.66 6.68 -4.32 5.36 -5 4 C-3.35 2.68 -1.7 1.36 0 0 Z " fill="#A0D278" transform="translate(29,9)"/>
<path d="M0 0 C0.33 0.66 0.66 1.32 1 2 C3.31 2 5.62 2 8 2 C7.67 2.99 7.34 3.98 7 5 C3.85262818 4.30058404 0.97411124 3.23921302 -2 2 C-1.34 1.34 -0.68 0.68 0 0 Z " fill="#B0B2B3" transform="translate(17,49)"/>
<path d="M0 0 C1.32 0.66 2.64 1.32 4 2 C3 5 3 5 0.9375 6.1875 C0.298125 6.455625 -0.34125 6.72375 -1 7 C-0.67 4.69 -0.34 2.38 0 0 Z " fill="#A9ABAC" transform="translate(20,34)"/>
<path d="M0 0 C0.33 0.66 0.66 1.32 1 2 C1.99 2.33 2.98 2.66 4 3 C3.01 3.99 2.02 4.98 1 6 C0.01 5.34 -0.98 4.68 -2 4 C-1.34 2.68 -0.68 1.36 0 0 Z " fill="#78AF4F" transform="translate(21,13)"/>
<path d="M0 0 C1.65 0 3.3 0 5 0 C4.67 1.98 4.34 3.96 4 6 C2.68 5.34 1.36 4.68 0 4 C0.66 3.67 1.32 3.34 2 3 C1.34 2.01 0.68 1.02 0 0 Z " fill="#CCCED0" transform="translate(30,53)"/>
<path d="M0 0 C0.66 0 1.32 0 2 0 C2 2.31 2 4.62 2 7 C1.01 7.33 0.02 7.66 -1 8 C-0.67 5.36 -0.34 2.72 0 0 Z " fill="#BABBBE" transform="translate(18,29)"/>
<path d="M0 0 C0.99 0.33 1.98 0.66 3 1 C3 2.98 3 4.96 3 7 C2.34 7 1.68 7 1 7 C0.67 4.69 0.34 2.38 0 0 Z " fill="#77B74E" transform="translate(12,3)"/>
<path d="M0 0 C0 1.65 0 3.3 0 5 C-0.33 4.34 -0.66 3.68 -1 3 C-2.65 3 -4.3 3 -6 3 C-6 2.34 -6 1.68 -6 1 C-3 0 -3 0 0 0 Z " fill="#74AD4E" transform="translate(38,1)"/>
</svg>
